<svg width="50" height="20" viewBox="0 0 50 20" fill="none" xmlns="http://www.w3.org/2000/svg">
<path d="M27.372 11.673C27.372 11.7662 27.3673 11.8547 27.358 11.9479L32.1111 13.6767C32.2975 13.029 32.3953 12.344 32.3953 11.6311C32.3953 8.22005 30.0887 5.3496 26.9526 4.49219L26.0952 9.58538C26.8687 9.98147 27.372 10.7783 27.372 11.673Z" fill="white"/>
<path d="M22.6936 11.6728C22.6936 10.7828 23.1968 9.98131 23.9657 9.58988L23.1083 4.47339C19.9349 5.3075 17.5957 8.1966 17.5957 11.6309C17.5957 12.3578 17.6982 13.0568 17.8939 13.7185L22.6982 11.8359C22.6936 11.78 22.6936 11.7287 22.6936 11.6728Z" fill="white"/>
<path d="M25.0324 14.0121C24.5618 14.0121 24.1051 13.8676 23.723 13.6113L19.832 16.9338C21.1647 18.2339 22.9867 19.0354 24.9951 19.0354C27.0175 19.0354 28.8488 18.2246 30.1815 16.9151L26.216 13.6952C25.8619 13.9002 25.4518 14.0121 25.0324 14.0121Z" fill="white"/>
<path d="M35.3355 16.0019C35.1445 15.5638 34.7717 15.233 34.3243 15.0606L26.7148 12.2926C26.7847 12.0969 26.8267 11.8872 26.8267 11.6729C26.8267 10.8388 26.2535 10.1351 25.48 9.93476L26.8034 2.10158C26.9105 1.43989 26.6589 0.759553 26.123 0.358807C25.8201 0.135135 25.4427 0 25.0373 0C24.4408 0 23.9143 0.28425 23.5834 0.731594C23.2992 1.1137 23.192 1.60298 23.2619 2.07363L24.5806 9.93942C23.8117 10.1398 23.2432 10.8434 23.2432 11.6775C23.2432 11.8546 23.2712 12.0224 23.3178 12.1855L15.6803 15.1817C15.0606 15.4334 14.6039 15.9972 14.5387 16.6636C14.5014 17.041 14.5806 17.4324 14.7903 17.7773C15.0979 18.2852 15.6151 18.5927 16.165 18.6486C16.6403 18.6952 17.1109 18.5368 17.4837 18.2339L23.7185 12.8938C24.0447 13.2479 24.5154 13.4669 25.0326 13.4669C25.4939 13.4669 25.918 13.2898 26.2349 13.0009L32.5489 18.1267C33.0708 18.5461 33.7884 18.6626 34.4035 18.3924C34.7484 18.2386 35.0513 17.9776 35.2516 17.6235C35.5452 17.1109 35.5592 16.5098 35.3355 16.0019Z" fill="white"/>
<path d="M49.534 6.35132H30.9272C31.1882 6.64489 31.4258 6.9571 31.6449 7.28794H32.8984L38.0801 15.4799H35.6244C35.6896 15.5824 35.7502 15.6896 35.8014 15.8015C35.89 15.9972 35.9459 16.2069 35.9738 16.4166H43.7278C43.9888 16.4166 44.1984 16.2069 44.1984 15.9459C44.1984 15.685 43.9888 15.4753 43.7278 15.4753H40.0139L45.1957 7.28328H49.5293C49.7902 7.28328 49.9999 7.07359 49.9999 6.81264C49.9999 6.56101 49.7902 6.35132 49.534 6.35132ZM39.0493 15.2563L34.0074 7.28794H44.0913L39.0493 15.2563Z" fill="white"/>
<path d="M0.470643 6.35132C0.209692 6.35132 0 6.56101 0 6.82196C0 7.08291 0.209692 7.2926 0.470643 7.2926H4.84157L10.0233 15.4846H6.30475C6.0438 15.4846 5.83411 15.6943 5.83411 15.9552C5.83411 16.2162 6.0438 16.4259 6.30475 16.4259H14.0541C14.1193 16.081 14.2637 15.7642 14.4688 15.4892H11.9525L17.1342 7.29726H18.3364C18.5508 6.96642 18.7931 6.65421 19.0541 6.36064H0.470643V6.35132ZM10.9925 15.2563L5.95061 7.28794H16.0345L10.9925 15.2563Z" fill="white"/>
</svg>
